# xmcd
#
# Track frame offsets: 
#        150
#        12658
#        24795
#        40523
#        49569
#        60559
#        72159
#        86365
#        99063
#        109309
#        118579
#        130625
#        144194
#        157557
#        171905
#        185409
#        196816
#        210070
#        223591
#        236421
#        247780
#        265217
#        281483
#
# Disc length: 3932 seconds
#
# Revision: 0
# Processed by: cddbd v1.5.2PL0 Copyright (c) Steve Scherf et al.
# Submitted via: ExactAudioCopyFreeDBPlugin 1.0
#
DISCID=1a0f5a17
DTITLE=Roscoe Robinson - Let Me Be Myself (The Best of)
DYEAR=1900
DGENRE=R&B
TTITLE0=Why Are You Afraid
TTITLE1=Darling, Please Tell Me
TTITLE2=Let Me Know
TTITLE3=One Bo-dillion Years
TTITLE4=Fox Hunting on a Weekend
TTITLE5=You Don't Move me no More
TTITLE6=Why Must it End
TTITLE7=How Many Times Must I Knock
TTITLE8=I'm Burning and Yearning (For You)
TTITLE9=Standing in the Safety Zone
TTITLE10=You're All I Need
TTITLE11=My Pride Won't Let Me
TTITLE12=Let Me Be Myself
TTITLE13=Yesterday is Gone
TTITLE14=I'm Satisfied
TTITLE15=Prove It
TTITLE16=Don't Set me Free
TTITLE17=Trust Me
TTITLE18=You and Me
TTITLE19=We're Losing It, Baby
TTITLE20=We Got a Good Thing Going
TTITLE21=You Qualify
TTITLE22=(Standing in the) Safety Zone
EXTD=
EXTT0=
EXTT1=
EXTT2=
EXTT3=
EXTT4=
EXTT5=
EXTT6=
EXTT7=
EXTT8=
EXTT9=
EXTT10=
EXTT11=
EXTT12=
EXTT13=
EXTT14=
EXTT15=
EXTT16=
EXTT17=
EXTT18=
EXTT19=
EXTT20=
EXTT21=
EXTT22=
PLAYORDER=
